# Blender 5.0.1
# www.blender.org
mtllib pillar.mtl
o 실린더
v 6.937890 -0.688695 -1.004610
v 6.937890 6.177235 -1.004610
v 7.030755 -0.688695 -0.995463
v 7.030755 6.177235 -0.995463
v 7.120051 -0.688695 -0.968376
v 7.120051 6.177235 -0.968376
v 7.202348 -0.688695 -0.924387
v 7.202348 6.177235 -0.924387
v 7.274481 -0.688695 -0.865189
v 7.274481 6.177235 -0.865189
v 7.333679 -0.688695 -0.793056
v 7.333679 6.177235 -0.793056
v 7.377667 -0.688695 -0.710760
v 7.377667 6.177235 -0.710760
v 7.404755 -0.688695 -0.621463
v 7.404755 6.177235 -0.621463
v 7.413901 -0.688695 -0.528598
v 7.413901 6.177235 -0.528598
v 7.404755 -0.688695 -0.435733
v 7.404755 6.177235 -0.435733
v 7.377667 -0.688695 -0.346436
v 7.377667 6.177235 -0.346436
v 7.333679 -0.688695 -0.264140
v 7.333679 6.177235 -0.264140
v 7.274481 -0.688695 -0.192007
v 7.274481 6.177235 -0.192007
v 7.202348 -0.688695 -0.132809
v 7.202348 6.177235 -0.132809
v 7.120051 -0.688695 -0.088820
v 7.120051 6.177235 -0.088820
v 7.030755 -0.688695 -0.061733
v 7.030755 6.177235 -0.061733
v 6.937890 -0.688695 -0.052586
v 6.937890 6.177235 -0.052586
v 6.845024 -0.688695 -0.061733
v 6.845024 6.177235 -0.061733
v 6.755728 -0.688695 -0.088820
v 6.755728 6.177235 -0.088820
v 6.673431 -0.688695 -0.132809
v 6.673431 6.177235 -0.132809
v 6.601298 -0.688695 -0.192007
v 6.601298 6.177235 -0.192007
v 6.542100 -0.688695 -0.264140
v 6.542100 6.177235 -0.264140
v 6.498112 -0.688695 -0.346436
v 6.498112 6.177235 -0.346436
v 6.471024 -0.688695 -0.435733
v 6.471024 6.177235 -0.435733
v 6.461878 -0.688695 -0.528598
v 6.461878 6.177235 -0.528598
v 6.471024 -0.688695 -0.621463
v 6.471024 6.177235 -0.621463
v 6.498112 -0.688695 -0.710760
v 6.498112 6.177235 -0.710760
v 6.542100 -0.688695 -0.793056
v 6.542100 6.177235 -0.793056
v 6.601298 -0.688695 -0.865189
v 6.601298 6.177235 -0.865189
v 6.673431 -0.688695 -0.924387
v 6.673431 6.177235 -0.924387
v 6.755728 -0.688695 -0.968376
v 6.755728 6.177235 -0.968376
v 6.845024 -0.688695 -0.995463
v 6.845024 6.177235 -0.995463
vn 0.0980 -0.0000 -0.9952
vn 0.2903 -0.0000 -0.9569
vn 0.4714 -0.0000 -0.8819
vn 0.6344 -0.0000 -0.7730
vn 0.7730 -0.0000 -0.6344
vn 0.8819 -0.0000 -0.4714
vn 0.9569 -0.0000 -0.2903
vn 0.9952 -0.0000 -0.0980
vn 0.9952 -0.0000 0.0980
vn 0.9569 -0.0000 0.2903
vn 0.8819 -0.0000 0.4714
vn 0.7730 -0.0000 0.6344
vn 0.6344 -0.0000 0.7730
vn 0.4714 -0.0000 0.8819
vn 0.2903 -0.0000 0.9569
vn 0.0980 -0.0000 0.9952
vn -0.0980 -0.0000 0.9952
vn -0.2903 -0.0000 0.9569
vn -0.4714 -0.0000 0.8819
vn -0.6344 -0.0000 0.7730
vn -0.7730 -0.0000 0.6344
vn -0.8819 -0.0000 0.4714
vn -0.9569 -0.0000 0.2903
vn -0.9952 -0.0000 0.0980
vn -0.9952 -0.0000 -0.0980
vn -0.9569 -0.0000 -0.2903
vn -0.8819 -0.0000 -0.4714
vn -0.7730 -0.0000 -0.6344
vn -0.6344 -0.0000 -0.7730
vn -0.4714 -0.0000 -0.8819
vn -0.0000 1.0000 -0.0000
vn -0.2903 -0.0000 -0.9569
vn -0.0980 -0.0000 -0.9952
vn -0.0000 -1.0000 -0.0000
vt 1.000000 1.000000
vt 0.968750 0.500000
vt 1.000000 0.500000
vt 0.968750 1.000000
vt 0.937500 0.500000
vt 0.937500 1.000000
vt 0.906250 0.500000
vt 0.906250 1.000000
vt 0.875000 0.500000
vt 0.875000 1.000000
vt 0.843750 0.500000
vt 0.843750 1.000000
vt 0.812500 0.500000
vt 0.812500 1.000000
vt 0.781250 0.500000
vt 0.781250 1.000000
vt 0.750000 0.500000
vt 0.750000 1.000000
vt 0.718750 0.500000
vt 0.718750 1.000000
vt 0.687500 0.500000
vt 0.687500 1.000000
vt 0.656250 0.500000
vt 0.656250 1.000000
vt 0.625000 0.500000
vt 0.625000 1.000000
vt 0.593750 0.500000
vt 0.593750 1.000000
vt 0.562500 0.500000
vt 0.562500 1.000000
vt 0.531250 0.500000
vt 0.531250 1.000000
vt 0.500000 0.500000
vt 0.500000 1.000000
vt 0.468750 0.500000
vt 0.468750 1.000000
vt 0.437500 0.500000
vt 0.437500 1.000000
vt 0.406250 0.500000
vt 0.406250 1.000000
vt 0.375000 0.500000
vt 0.375000 1.000000
vt 0.343750 0.500000
vt 0.343750 1.000000
vt 0.312500 0.500000
vt 0.312500 1.000000
vt 0.281250 0.500000
vt 0.281250 1.000000
vt 0.250000 0.500000
vt 0.250000 1.000000
vt 0.218750 0.500000
vt 0.218750 1.000000
vt 0.187500 0.500000
vt 0.187500 1.000000
vt 0.156250 0.500000
vt 0.156250 1.000000
vt 0.125000 0.500000
vt 0.125000 1.000000
vt 0.093750 0.500000
vt 0.093750 1.000000
vt 0.062500 0.500000
vt 0.158156 0.028269
vt 0.471731 0.158156
vt 0.341844 0.471731
vt 0.062500 1.000000
vt 0.031250 0.500000
vt 0.031250 1.000000
vt 0.000000 0.500000
vt 0.796822 0.014612
vt 0.514612 0.203178
vt 0.703178 0.485388
vt 0.296822 0.485388
vt 0.250000 0.490000
vt 0.203178 0.485388
vt 0.158156 0.471731
vt 0.116663 0.449553
vt 0.080294 0.419706
vt 0.050447 0.383337
vt 0.028269 0.341844
vt 0.014612 0.296822
vt 0.010000 0.250000
vt 0.014612 0.203178
vt 0.028269 0.158156
vt 0.050447 0.116663
vt 0.080294 0.080294
vt 0.116663 0.050447
vt 0.203178 0.014612
vt 0.250000 0.010000
vt 0.296822 0.014612
vt 0.341844 0.028269
vt 0.383337 0.050447
vt 0.419706 0.080294
vt 0.449553 0.116663
vt 0.485388 0.203178
vt 0.490000 0.250000
vt 0.485388 0.296822
vt 0.471731 0.341844
vt 0.449553 0.383337
vt 0.419706 0.419706
vt 0.383337 0.449553
vt 0.000000 1.000000
vt 0.750000 0.490000
vt 0.796822 0.485388
vt 0.841844 0.471731
vt 0.883337 0.449553
vt 0.919706 0.419706
vt 0.949553 0.383337
vt 0.971731 0.341844
vt 0.985388 0.296822
vt 0.990000 0.250000
vt 0.985388 0.203178
vt 0.971731 0.158156
vt 0.949553 0.116663
vt 0.919706 0.080294
vt 0.883337 0.050447
vt 0.841844 0.028269
vt 0.750000 0.010000
vt 0.703178 0.014612
vt 0.658156 0.028269
vt 0.616663 0.050447
vt 0.580294 0.080294
vt 0.550447 0.116663
vt 0.528269 0.158156
vt 0.510000 0.250000
vt 0.514612 0.296822
vt 0.528269 0.341844
vt 0.550447 0.383337
vt 0.580294 0.419706
vt 0.616663 0.449553
vt 0.658156 0.471731
s 0
f 2/1/1 3/2/1 1/3/1
f 4/4/2 5/5/2 3/2/2
f 6/6/3 7/7/3 5/5/3
f 8/8/4 9/9/4 7/7/4
f 10/10/5 11/11/5 9/9/5
f 12/12/6 13/13/6 11/11/6
f 14/14/7 15/15/7 13/13/7
f 16/16/8 17/17/8 15/15/8
f 18/18/9 19/19/9 17/17/9
f 20/20/10 21/21/10 19/19/10
f 22/22/11 23/23/11 21/21/11
f 24/24/12 25/25/12 23/23/12
f 26/26/13 27/27/13 25/25/13
f 28/28/14 29/29/14 27/27/14
f 30/30/15 31/31/15 29/29/15
f 32/32/16 33/33/16 31/31/16
f 34/34/17 35/35/17 33/33/17
f 36/36/18 37/37/18 35/35/18
f 38/38/19 39/39/19 37/37/19
f 40/40/20 41/41/20 39/39/20
f 42/42/21 43/43/21 41/41/21
f 44/44/22 45/45/22 43/43/22
f 46/46/23 47/47/23 45/45/23
f 48/48/24 49/49/24 47/47/24
f 50/50/25 51/51/25 49/49/25
f 52/52/26 53/53/26 51/51/26
f 54/54/27 55/55/27 53/53/27
f 56/56/28 57/57/28 55/55/28
f 58/58/29 59/59/29 57/57/29
f 60/60/30 61/61/30 59/59/30
f 38/62/31 22/63/31 6/64/31
f 62/65/32 63/66/32 61/61/32
f 64/67/33 1/68/33 63/66/33
f 31/69/34 47/70/34 63/71/34
f 2/1/1 4/4/1 3/2/1
f 4/4/2 6/6/2 5/5/2
f 6/6/3 8/8/3 7/7/3
f 8/8/4 10/10/4 9/9/4
f 10/10/5 12/12/5 11/11/5
f 12/12/6 14/14/6 13/13/6
f 14/14/7 16/16/7 15/15/7
f 16/16/8 18/18/8 17/17/8
f 18/18/9 20/20/9 19/19/9
f 20/20/10 22/22/10 21/21/10
f 22/22/11 24/24/11 23/23/11
f 24/24/12 26/26/12 25/25/12
f 26/26/13 28/28/13 27/27/13
f 28/28/14 30/30/14 29/29/14
f 30/30/15 32/32/15 31/31/15
f 32/32/16 34/34/16 33/33/16
f 34/34/17 36/36/17 35/35/17
f 36/36/18 38/38/18 37/37/18
f 38/38/19 40/40/19 39/39/19
f 40/40/20 42/42/20 41/41/20
f 42/42/21 44/44/21 43/43/21
f 44/44/22 46/46/22 45/45/22
f 46/46/23 48/48/23 47/47/23
f 48/48/24 50/50/24 49/49/24
f 50/50/25 52/52/25 51/51/25
f 52/52/26 54/54/26 53/53/26
f 54/54/27 56/56/27 55/55/27
f 56/56/28 58/58/28 57/57/28
f 58/58/29 60/60/29 59/59/29
f 60/60/30 62/65/30 61/61/30
f 6/64/31 4/72/31 2/73/31
f 2/73/31 64/74/31 62/75/31
f 62/75/31 60/76/31 58/77/31
f 58/77/31 56/78/31 54/79/31
f 54/79/31 52/80/31 50/81/31
f 50/81/31 48/82/31 46/83/31
f 46/83/31 44/84/31 42/85/31
f 42/85/31 40/86/31 38/62/31
f 38/62/31 36/87/31 34/88/31
f 34/88/31 32/89/31 30/90/31
f 30/90/31 28/91/31 26/92/31
f 26/92/31 24/93/31 22/63/31
f 22/63/31 20/94/31 18/95/31
f 18/95/31 16/96/31 14/97/31
f 14/97/31 12/98/31 10/99/31
f 10/99/31 8/100/31 6/64/31
f 6/64/31 2/73/31 62/75/31
f 62/75/31 58/77/31 54/79/31
f 54/79/31 50/81/31 46/83/31
f 46/83/31 42/85/31 38/62/31
f 38/62/31 34/88/31 30/90/31
f 30/90/31 26/92/31 22/63/31
f 22/63/31 18/95/31 14/97/31
f 14/97/31 10/99/31 6/64/31
f 6/64/31 62/75/31 54/79/31
f 54/79/31 46/83/31 38/62/31
f 38/62/31 30/90/31 22/63/31
f 22/63/31 14/97/31 6/64/31
f 6/64/31 54/79/31 38/62/31
f 62/65/32 64/67/32 63/66/32
f 64/67/33 2/101/33 1/68/33
f 63/71/34 1/102/34 3/103/34
f 3/103/34 5/104/34 7/105/34
f 7/105/34 9/106/34 11/107/34
f 11/107/34 13/108/34 15/109/34
f 15/109/34 17/110/34 19/111/34
f 19/111/34 21/112/34 23/113/34
f 23/113/34 25/114/34 27/115/34
f 27/115/34 29/116/34 31/69/34
f 31/69/34 33/117/34 35/118/34
f 35/118/34 37/119/34 39/120/34
f 39/120/34 41/121/34 43/122/34
f 43/122/34 45/123/34 47/70/34
f 47/70/34 49/124/34 51/125/34
f 51/125/34 53/126/34 55/127/34
f 55/127/34 57/128/34 59/129/34
f 59/129/34 61/130/34 63/71/34
f 63/71/34 3/103/34 7/105/34
f 7/105/34 11/107/34 15/109/34
f 15/109/34 19/111/34 23/113/34
f 23/113/34 27/115/34 31/69/34
f 31/69/34 35/118/34 39/120/34
f 39/120/34 43/122/34 47/70/34
f 47/70/34 51/125/34 55/127/34
f 55/127/34 59/129/34 63/71/34
f 63/71/34 7/105/34 15/109/34
f 15/109/34 23/113/34 31/69/34
f 31/69/34 39/120/34 47/70/34
f 47/70/34 55/127/34 63/71/34
f 63/71/34 15/109/34 31/69/34
o 큐브
v 5.504081 6.327449 -1.447247
v 5.504081 4.902748 -1.447248
v 5.504081 6.327448 1.415613
v 5.504081 4.902747 1.415613
v 8.048835 6.327449 -1.447247
v 8.048835 4.902748 -1.447248
v 8.048835 6.327448 1.415613
v 8.048835 4.902747 1.415613
vn -1.0000 -0.0000 -0.0000
vn -0.0000 -0.0000 1.0000
vn 1.0000 -0.0000 -0.0000
vn -0.0000 -0.0000 -1.0000
vn -0.0000 1.0000 -0.0000
vn -0.0000 -1.0000 -0.0000
vt 0.625000 0.000000
vt 0.375000 0.250000
vt 0.375000 0.000000
vt 0.625000 0.250000
vt 0.375000 0.500000
vt 0.625000 0.500000
vt 0.375000 0.750000
vt 0.625000 0.750000
vt 0.375000 1.000000
vt 0.125000 0.750000
vt 0.125000 0.500000
vt 0.875000 0.500000
vt 0.625000 1.000000
vt 0.875000 0.750000
s 0
f 66/131/35 67/132/35 65/133/35
f 68/134/36 71/135/36 67/132/36
f 72/136/37 69/137/37 71/135/37
f 70/138/38 65/139/38 69/137/38
f 71/135/39 65/140/39 67/141/39
f 68/142/40 70/138/40 72/136/40
f 66/131/35 68/134/35 67/132/35
f 68/134/36 72/136/36 71/135/36
f 72/136/37 70/138/37 69/137/37
f 70/138/38 66/143/38 65/139/38
f 71/135/39 69/137/39 65/140/39
f 68/142/40 66/144/40 70/138/40
o 아이코스피어
v 6.980264 5.947286 -0.476143
v 7.703872 6.500066 0.049582
v 6.703876 6.500066 0.374506
v 6.085838 6.500070 -0.476143
v 6.703876 6.500066 -1.326792
v 7.703872 6.500066 -1.001868
v 7.256652 7.394506 0.374506
v 6.256657 7.394505 0.049582
v 6.256657 7.394505 -1.001868
v 7.256652 7.394506 -1.326792
v 7.874691 7.394501 -0.476143
v 6.980264 7.947286 -0.476143
v 6.817809 6.096631 0.023852
v 7.405587 6.096632 -0.167132
v 7.243133 6.421548 0.332869
v 7.830912 6.421550 -0.476143
v 7.405587 6.096632 -0.785154
v 6.454535 6.096634 -0.476143
v 6.292075 6.421549 0.023854
v 6.817809 6.096631 -0.976138
v 6.292075 6.421549 -0.976140
v 7.243133 6.421548 -1.285155
v 7.931322 6.947286 -0.167130
v 7.931322 6.947286 -0.785156
v 6.980264 6.947286 0.523857
v 7.568050 6.947286 0.332874
v 6.029206 6.947286 -0.167130
v 6.392478 6.947286 0.332874
v 6.392478 6.947286 -1.285160
v 6.029206 6.947286 -0.785156
v 7.568050 6.947286 -1.285160
v 6.980264 6.947286 -1.476143
v 7.668454 7.473022 0.023854
v 6.717395 7.473023 0.332869
v 6.129616 7.473022 -0.476143
v 6.717395 7.473023 -1.285155
v 7.668454 7.473022 -0.976140
v 7.142720 7.797940 0.023852
v 7.505994 7.797937 -0.476143
v 6.554942 7.797940 -0.167132
v 6.554942 7.797940 -0.785154
v 7.142720 7.797940 -0.976138
vn 0.1024 -0.9435 0.3151
vn 0.7002 -0.6617 0.2680
vn -0.2680 -0.9435 0.1947
vn -0.2680 -0.9435 -0.1947
vn 0.1024 -0.9435 -0.3151
vn 0.9050 -0.3304 0.2680
vn 0.0247 -0.3304 0.9435
vn -0.8897 -0.3304 0.3151
vn -0.5746 -0.3304 -0.7488
vn 0.5346 -0.3304 -0.7779
vn 0.8026 -0.1256 0.5831
vn -0.3066 -0.1256 0.9435
vn -0.9921 -0.1256 -0.0000
vn -0.3066 -0.1256 -0.9435
vn 0.8026 -0.1256 -0.5831
vn 0.4089 0.6617 0.6284
vn -0.4713 0.6617 0.5831
vn -0.7002 0.6617 -0.2680
vn 0.0385 0.6617 -0.7488
vn 0.7240 0.6617 -0.1947
vn 0.2680 0.9435 -0.1947
vn 0.4911 0.7947 -0.3568
vn 0.4089 0.6617 -0.6284
vn -0.1024 0.9435 -0.3151
vn -0.1876 0.7947 -0.5773
vn -0.4713 0.6617 -0.5831
vn -0.3313 0.9435 -0.0000
vn -0.6071 0.7947 -0.0000
vn -0.7002 0.6617 0.2680
vn -0.1024 0.9435 0.3151
vn -0.1876 0.7947 0.5773
vn 0.0385 0.6617 0.7488
vn 0.2680 0.9435 0.1947
vn 0.4911 0.7947 0.3568
vn 0.7240 0.6617 0.1947
vn 0.8897 0.3304 -0.3151
vn 0.7947 0.1876 -0.5773
vn 0.5746 0.3304 -0.7488
vn -0.0247 0.3304 -0.9435
vn -0.3035 0.1876 -0.9342
vn -0.5346 0.3304 -0.7779
vn -0.9050 0.3304 -0.2680
vn -0.9822 0.1876 -0.0000
vn -0.9050 0.3304 0.2680
vn -0.5346 0.3304 0.7779
vn -0.3035 0.1876 0.9342
vn -0.0247 0.3304 0.9435
vn 0.5746 0.3304 0.7488
vn 0.7947 0.1876 0.5773
vn 0.8897 0.3304 0.3151
vn 0.3066 0.1256 -0.9435
vn 0.3035 -0.1876 -0.9342
vn 0.0247 -0.3304 -0.9435
vn -0.8026 0.1256 -0.5831
vn -0.7947 -0.1876 -0.5773
vn -0.8897 -0.3304 -0.3151
vn -0.8026 0.1256 0.5831
vn -0.7947 -0.1876 0.5773
vn -0.5746 -0.3304 0.7488
vn 0.3066 0.1256 0.9435
vn 0.3035 -0.1876 0.9342
vn 0.5346 -0.3304 0.7779
vn 0.9921 0.1256 -0.0000
vn 0.9822 -0.1876 -0.0000
vn 0.9050 -0.3304 -0.2680
vn 0.4713 -0.6617 -0.5831
vn 0.1876 -0.7947 -0.5773
vn -0.0385 -0.6617 -0.7488
vn -0.4089 -0.6617 -0.6284
vn -0.4911 -0.7947 -0.3568
vn -0.7240 -0.6617 -0.1947
vn -0.7240 -0.6617 0.1947
vn -0.4911 -0.7947 0.3568
vn -0.4089 -0.6617 0.6284
vn 0.7002 -0.6617 -0.2680
vn 0.6071 -0.7947 -0.0000
vn 0.3313 -0.9435 -0.0000
vn -0.0385 -0.6617 0.7488
vn 0.1876 -0.7947 0.5773
vn 0.4713 -0.6617 0.5831
vt 0.181819 0.000000
vt 0.227273 0.078731
vt 0.136365 0.078731
vt 0.272728 0.157461
vt 0.318182 0.078731
vt 0.363637 0.157461
vt 0.909091 0.000000
vt 0.954545 0.078731
vt 0.863636 0.078731
vt 0.727273 0.000000
vt 0.772727 0.078731
vt 0.681818 0.078731
vt 0.545455 0.000000
vt 0.590909 0.078731
vt 0.500000 0.078731
vt 0.318182 0.236191
vt 0.090910 0.157461
vt 0.181819 0.157461
vt 0.136365 0.236191
vt 0.818182 0.157461
vt 0.909091 0.157461
vt 0.863636 0.236191
vt 0.636364 0.157461
vt 0.727273 0.157461
vt 0.681818 0.236191
vt 0.454546 0.157461
vt 0.545455 0.157461
vt 0.500000 0.236191
vt 0.227273 0.236191
vt 0.045455 0.236191
vt 0.772727 0.236191
vt 0.590909 0.236191
vt 0.409092 0.236191
vt 0.181819 0.314921
vt 0.272728 0.314921
vt 0.227273 0.393651
vt 0.000000 0.314921
vt 0.090910 0.314921
vt 0.045455 0.393651
vt 0.727273 0.314921
vt 0.818182 0.314921
vt 0.772727 0.393651
vt 0.545455 0.314921
vt 0.636364 0.314921
vt 0.590909 0.393651
vt 0.363637 0.314921
vt 0.454546 0.314921
vt 0.409092 0.393651
vt 0.500000 0.393651
vt 0.454546 0.472382
vt 0.681818 0.393651
vt 0.636364 0.472382
vt 0.863636 0.393651
vt 0.818182 0.472382
vt 0.909091 0.314921
vt 0.136365 0.393651
vt 0.090910 0.472382
vt 0.318182 0.393651
vt 0.272728 0.472382
vt 0.954545 0.236191
vt 1.000000 0.157461
vt 0.409092 0.078731
vt 0.363637 0.000000
s 0
f 73/145/41 86/146/41 85/147/41
f 74/148/42 86/149/42 88/150/42
f 73/151/43 85/152/43 90/153/43
f 73/154/44 90/155/44 92/156/44
f 73/157/45 92/158/45 89/159/45
f 74/148/46 88/150/46 95/160/46
f 75/161/47 87/162/47 97/163/47
f 76/164/48 91/165/48 99/166/48
f 77/167/49 93/168/49 101/169/49
f 78/170/50 94/171/50 103/172/50
f 74/148/51 95/160/51 98/173/51
f 75/161/52 97/163/52 100/174/52
f 76/164/53 99/166/53 102/175/53
f 77/167/54 101/169/54 104/176/54
f 78/170/55 103/172/55 96/177/55
f 79/178/56 105/179/56 110/180/56
f 80/181/57 106/182/57 112/183/57
f 81/184/58 107/185/58 113/186/58
f 82/187/59 108/188/59 114/189/59
f 83/190/60 109/191/60 111/192/60
f 111/192/61 114/193/61 84/194/61
f 111/192/62 109/191/62 114/193/62
f 109/191/63 82/187/63 114/193/63
f 114/189/64 113/195/64 84/196/64
f 114/189/65 108/188/65 113/195/65
f 108/188/66 81/184/66 113/195/66
f 113/186/67 112/197/67 84/198/67
f 113/186/68 107/185/68 112/197/68
f 107/185/69 80/199/69 112/197/69
f 112/183/70 110/200/70 84/201/70
f 112/183/71 106/182/71 110/200/71
f 106/182/72 79/178/72 110/200/72
f 110/180/73 111/202/73 84/203/73
f 110/180/74 105/179/74 111/202/74
f 105/179/75 83/190/75 111/202/75
f 96/177/76 109/191/76 83/190/76
f 96/177/77 103/172/77 109/191/77
f 103/172/78 82/187/78 109/191/78
f 104/176/79 108/188/79 82/187/79
f 104/176/80 101/169/80 108/188/80
f 101/169/81 81/184/81 108/188/81
f 102/175/82 107/185/82 81/184/82
f 102/175/83 99/166/83 107/185/83
f 99/166/84 80/199/84 107/185/84
f 100/174/85 106/182/85 80/181/85
f 100/174/86 97/163/86 106/182/86
f 97/163/87 79/178/87 106/182/87
f 98/173/88 105/179/88 79/178/88
f 98/173/89 95/160/89 105/179/89
f 95/160/90 83/190/90 105/179/90
f 103/172/91 104/176/91 82/187/91
f 103/172/92 94/171/92 104/176/92
f 94/171/93 77/167/93 104/176/93
f 101/169/94 102/175/94 81/184/94
f 101/169/95 93/168/95 102/175/95
f 93/168/96 76/164/96 102/175/96
f 99/166/97 100/204/97 80/199/97
f 99/166/98 91/165/98 100/204/98
f 91/165/99 75/205/99 100/204/99
f 97/163/100 98/173/100 79/178/100
f 97/163/101 87/162/101 98/173/101
f 87/162/102 74/148/102 98/173/102
f 95/160/103 96/177/103 83/190/103
f 95/160/104 88/150/104 96/177/104
f 88/150/105 78/170/105 96/177/105
f 89/159/106 94/171/106 78/170/106
f 89/159/107 92/158/107 94/171/107
f 92/158/108 77/167/108 94/171/108
f 92/156/109 93/168/109 77/167/109
f 92/156/110 90/155/110 93/168/110
f 90/155/111 76/164/111 93/168/111
f 90/153/112 91/165/112 76/164/112
f 90/153/113 85/152/113 91/165/113
f 85/152/114 75/205/114 91/165/114
f 88/150/115 89/206/115 78/170/115
f 88/150/116 86/149/116 89/206/116
f 86/149/117 73/207/117 89/206/117
f 85/147/118 87/162/118 75/161/118
f 85/147/119 86/146/119 87/162/119
f 86/146/120 74/148/120 87/162/120
